<svg width="360" height="739" viewBox="0 0 360 739" fill="none" xmlns="http://www.w3.org/2000/svg">
<g filter="url(#filter0_d_33_35)">
<path d="M100.52 466.8H80V473.12H91.6L80 489.04V495H100.52V488.64H88.8L100.52 472.76V466.8ZM124.851 478.48C126.651 478.48 128.211 479.56 128.211 481.56H121.291C121.651 479.52 122.971 478.48 124.851 478.48ZM135.731 487.24H127.371C126.931 488.16 126.091 489 124.571 489C122.811 489 121.411 487.96 121.251 485.36H136.091C136.171 484.76 136.211 484.12 136.211 483.52C136.211 476.56 131.531 472.28 124.891 472.28C118.171 472.28 113.491 476.64 113.491 483.76C113.491 490.92 118.251 495.28 124.891 495.28C130.491 495.28 134.691 491.84 135.731 487.24ZM164.7 495H172.54V481.92C172.54 476.04 169.3 472.36 164.1 472.36C160.94 472.36 158.58 473.84 157.26 475.76V472.56H149.42V495H157.26V482.96C157.26 480.36 158.7 478.84 161.02 478.84C163.26 478.84 164.7 480.36 164.7 482.96V495ZM207.122 466.8H186.602V473.12H198.202L186.602 489.04V495H207.122V488.64H195.402L207.122 472.76V466.8ZM231.453 478.48C233.253 478.48 234.813 479.56 234.813 481.56H227.893C228.253 479.52 229.573 478.48 231.453 478.48ZM242.333 487.24H233.973C233.533 488.16 232.693 489 231.173 489C229.413 489 228.013 487.96 227.853 485.36H242.693C242.773 484.76 242.813 484.12 242.813 483.52C242.813 476.56 238.133 472.28 231.493 472.28C224.773 472.28 220.093 476.64 220.093 483.76C220.093 490.92 224.853 495.28 231.493 495.28C237.093 495.28 241.293 491.84 242.333 487.24ZM271.301 495H279.141V481.92C279.141 476.04 275.901 472.36 270.701 472.36C267.541 472.36 265.181 473.84 263.861 475.76V472.56H256.021V495H263.861V482.96C263.861 480.36 265.301 478.84 267.621 478.84C269.861 478.84 271.301 480.36 271.301 482.96V495Z" fill="#DB00FF"/>
<path d="M152.235 256C152.235 256 125.218 287.121 128.235 310C131.865 337.523 179.735 359 179.735 359C179.735 359 228.748 337.905 232.735 310C235.966 287.384 210.235 256 210.235 256" stroke="#DB00FF" stroke-width="12" stroke-linecap="round"/>
<path d="M151.5 383C151.5 383 138.519 372.897 129 373.5C116.149 374.315 104 395 104 395C104 395 117.285 412.224 129 419C168.306 441.734 198.35 348.117 236 373.5C245.619 379.985 256.5 395 256.5 395C256.5 395 247.942 415.947 236 419C224.331 421.983 207 408.5 207 408.5" stroke="#DB00FF" stroke-width="14" stroke-linecap="round"/>
<circle cx="180.5" cy="292" r="19.5" fill="#DB00FF" stroke="#DB00FF" stroke-width="12"/>
</g>
<defs>
<filter id="filter0_d_33_35" x="-170" y="-0.000183105" width="699.141" height="745.28" filterUnits="userSpaceOnUse" color-interpolation-filters="sRGB">
<feFlood flood-opacity="0" result="BackgroundImageFix"/>
<feColorMatrix in="SourceAlpha" type="matrix" values="0 0 0 0 0 0 0 0 0 0 0 0 0 0 0 0 0 0 127 0" result="hardAlpha"/>
<feOffset/>
<!--<feGaussianBlur stdDeviation="120"/>-->
<feComposite in2="hardAlpha" operator="out"/>
<feColorMatrix type="matrix" values="0 0 0 0 1 0 0 0 0 0.538667 0 0 0 0 0.279167 0 0 0 1 0"/>
<feBlend mode="normal" in2="BackgroundImageFix" result="effect1_dropShadow_33_35"/>
<feBlend mode="normal" in="SourceGraphic" in2="effect1_dropShadow_33_35" result="shape"/>
</filter>
</defs>
</svg>
